<svg id="svg" version="1.1" width="400" height="400" xmlns="http://www.w3.org/2000/svg" xmlns:xlink="http://www.w3.org/1999/xlink" style="display: block;"><g id="svgg"><path id="path0" d="M191.100 5.135 C 188.347 5.308,184.358 5.636,181.350 5.937 L 178.000 6.272 178.017 6.886 C 178.027 7.224,178.143 8.265,178.276 9.200 L 178.516 10.900 179.308 10.856 C 179.744 10.831,181.405 10.676,183.000 10.510 C 184.595 10.344,187.655 10.111,189.800 9.991 C 191.945 9.872,194.083 9.729,194.550 9.675 L 195.400 9.575 195.397 7.738 C 195.393 4.716,195.616 4.851,191.100 5.135 M212.200 7.087 C 212.200 8.231,212.149 9.300,212.087 9.461 C 211.995 9.702,212.314 9.780,213.837 9.888 C 218.101 10.190,222.891 10.637,225.786 11.004 C 227.483 11.219,228.901 11.366,228.936 11.331 C 229.105 11.161,229.590 6.910,229.455 6.780 C 229.258 6.591,221.070 5.688,217.000 5.407 C 215.295 5.290,213.518 5.152,213.050 5.100 L 212.200 5.008 212.200 7.087 M159.300 9.515 C 153.004 10.991,144.730 13.203,144.448 13.486 C 144.358 13.575,145.499 17.765,145.655 17.922 C 145.685 17.952,146.788 17.664,148.105 17.282 C 151.129 16.404,156.586 14.996,159.674 14.296 L 162.049 13.758 161.930 12.895 C 161.865 12.420,161.667 11.395,161.490 10.616 C 161.129 9.029,161.206 9.068,159.300 9.515 M246.311 10.036 C 245.939 11.173,245.379 14.254,245.522 14.377 C 245.620 14.461,247.275 14.915,249.200 15.386 C 252.094 16.094,260.269 18.440,261.412 18.891 C 261.662 18.989,261.863 18.566,262.429 16.757 C 263.128 14.519,263.130 14.499,262.717 14.336 C 261.460 13.842,254.753 11.906,251.200 11.012 C 248.945 10.444,246.942 9.933,246.749 9.876 C 246.556 9.819,246.359 9.891,246.311 10.036 M124.000 20.918 C 121.855 21.851,118.365 23.462,116.244 24.499 L 112.388 26.383 113.417 28.442 C 113.983 29.574,114.466 30.523,114.490 30.551 C 114.515 30.579,116.372 29.715,118.617 28.631 C 120.863 27.548,124.344 25.955,126.354 25.092 C 128.363 24.229,129.983 23.468,129.954 23.400 C 129.924 23.332,129.547 22.360,129.116 21.239 C 128.685 20.117,128.235 19.205,128.116 19.211 C 127.997 19.218,126.145 19.986,124.000 20.918 M278.236 22.362 C 277.794 23.428,277.402 24.411,277.366 24.546 C 277.326 24.696,278.670 25.408,280.800 26.366 C 282.725 27.231,286.122 28.852,288.348 29.969 C 290.575 31.086,292.465 31.998,292.548 31.996 C 292.712 31.992,294.869 28.001,294.763 27.898 C 294.391 27.535,283.569 22.305,280.700 21.101 C 278.884 20.339,279.126 20.214,278.236 22.362 M95.200 36.271 C 90.515 39.264,83.400 44.323,83.400 44.662 C 83.400 45.055,86.045 48.396,86.254 48.266 C 86.372 48.193,87.632 47.284,89.054 46.245 C 91.968 44.117,99.581 39.000,99.835 39.000 C 100.173 39.000,99.971 38.525,98.850 36.688 C 97.480 34.443,97.974 34.500,95.200 36.271 M309.250 36.850 C 308.712 37.526,306.985 40.452,307.073 40.539 C 307.167 40.634,309.333 37.408,309.543 36.859 C 309.670 36.530,309.509 36.525,309.250 36.850 M66.488 58.832 C 62.681 62.464,62.010 63.129,59.499 65.751 L 57.726 67.601 58.313 68.219 C 58.636 68.559,59.413 69.284,60.039 69.829 L 61.178 70.820 65.939 66.057 C 68.558 63.437,71.263 60.809,71.950 60.217 C 72.638 59.624,73.200 59.067,73.200 58.978 C 73.200 58.723,70.324 55.603,70.088 55.601 C 69.971 55.601,68.351 57.054,66.488 58.832 M44.358 83.650 C 40.585 88.700,36.423 94.727,36.618 94.858 C 38.148 95.881,40.239 97.210,40.380 97.249 C 40.483 97.277,41.577 95.815,42.810 94.000 C 44.043 92.185,46.233 89.125,47.676 87.200 C 49.119 85.275,50.300 83.641,50.300 83.570 C 50.300 83.454,46.834 80.600,46.693 80.600 C 46.662 80.600,45.611 81.973,44.358 83.650 M264.250 95.538 C 264.443 95.588,264.757 95.588,264.950 95.538 C 265.143 95.488,264.985 95.446,264.600 95.446 C 264.215 95.446,264.058 95.488,264.250 95.538 M233.189 108.550 L 232.500 109.300 233.250 108.611 C 233.948 107.969,234.092 107.800,233.939 107.800 C 233.906 107.800,233.568 108.138,233.189 108.550 M25.595 114.010 C 23.416 118.364,20.676 124.293,20.560 124.905 C 20.506 125.190,23.687 126.748,24.562 126.865 C 24.717 126.886,25.229 125.968,25.825 124.600 C 26.376 123.335,27.993 119.922,29.418 117.014 C 30.843 114.107,31.939 111.664,31.854 111.585 C 31.560 111.312,28.266 109.600,28.034 109.600 C 27.906 109.600,26.809 111.585,25.595 114.010 M375.650 113.557 C 374.632 114.070,373.800 114.555,373.800 114.634 C 373.800 114.713,374.395 116.021,375.121 117.539 C 377.090 121.653,378.619 125.019,379.714 127.650 C 380.252 128.942,380.767 130.000,380.858 130.000 C 381.792 130.000,385.016 128.293,384.907 127.857 C 384.387 125.786,378.191 112.591,377.748 112.612 C 377.611 112.618,376.668 113.043,375.650 113.557 M308.650 137.700 C 308.653 138.140,308.694 138.296,308.741 138.048 C 308.789 137.799,308.787 137.439,308.737 137.248 C 308.687 137.056,308.648 137.260,308.650 137.700 M308.650 141.700 C 308.653 142.140,308.694 142.296,308.741 142.048 C 308.789 141.799,308.787 141.439,308.737 141.248 C 308.687 141.056,308.648 141.260,308.650 141.700 M13.730 143.437 C 12.298 148.061,9.694 157.770,9.848 157.910 C 9.973 158.024,14.394 158.869,14.448 158.789 C 14.480 158.740,14.932 156.987,15.451 154.892 C 15.970 152.798,16.935 149.268,17.596 147.047 C 18.256 144.827,18.820 142.907,18.848 142.781 C 18.896 142.569,16.415 141.611,15.033 141.307 L 14.430 141.175 13.730 143.437 M388.400 145.044 C 387.355 145.377,386.464 145.682,386.421 145.721 C 386.377 145.760,386.757 147.256,387.265 149.046 C 388.215 152.395,389.781 158.578,390.217 160.700 C 390.352 161.360,390.517 161.960,390.582 162.034 C 390.684 162.151,394.960 161.307,395.130 161.136 C 395.290 160.977,392.469 149.789,391.238 145.700 C 390.806 144.266,390.824 144.270,388.400 145.044 M6.719 174.950 C 6.531 175.559,5.628 184.166,5.402 187.500 C 5.283 189.260,5.163 190.980,5.136 191.322 L 5.087 191.944 7.374 192.075 C 10.117 192.231,9.735 192.665,9.992 189.095 C 10.271 185.227,10.737 180.497,11.123 177.631 C 11.484 174.945,11.689 175.276,9.497 175.005 C 8.509 174.883,7.504 174.742,7.264 174.691 C 6.969 174.629,6.792 174.713,6.719 174.950 M395.302 178.276 C 393.189 178.539,393.257 178.428,393.579 181.081 C 393.883 183.592,394.347 189.348,394.511 192.650 L 394.648 195.400 397.041 195.400 L 399.434 195.400 399.322 193.950 C 399.261 193.153,399.157 191.465,399.091 190.200 C 398.961 187.689,398.289 180.125,398.079 178.817 C 397.931 177.889,398.121 177.926,395.302 178.276 M172.497 233.400 C 172.497 248.305,172.521 254.403,172.550 246.950 C 172.579 239.498,172.579 227.303,172.550 219.850 C 172.521 212.398,172.497 218.495,172.497 233.400 M229.049 241.847 L 229.000 277.393 223.950 277.450 L 218.900 277.507 223.956 277.554 C 227.852 277.589,229.034 277.543,229.108 277.350 C 229.160 277.213,229.179 261.170,229.151 241.700 L 229.099 206.300 229.049 241.847 M5.850 208.946 L 5.000 209.023 5.002 210.161 C 5.004 211.746,5.550 219.331,5.905 222.700 C 6.067 224.240,6.199 225.657,6.200 225.850 C 6.200 226.276,6.723 226.296,9.257 225.971 L 11.042 225.742 10.916 224.954 C 10.674 223.444,10.023 215.880,9.904 213.200 C 9.838 211.715,9.737 210.118,9.680 209.650 L 9.575 208.800 8.138 208.835 C 7.347 208.854,6.317 208.904,5.850 208.946 M394.128 216.950 C 393.928 219.563,393.560 223.320,393.311 225.300 C 393.061 227.280,392.882 228.930,392.913 228.967 C 393.011 229.087,397.382 229.685,397.475 229.591 C 397.692 229.371,398.704 219.754,399.095 214.178 L 399.216 212.457 398.280 212.328 C 397.765 212.258,396.703 212.200,395.919 212.200 L 394.493 212.200 394.128 216.950 M303.296 243.300 C 303.296 254.740,303.320 259.391,303.350 253.635 C 303.379 247.879,303.379 238.519,303.350 232.835 C 303.320 227.151,303.296 231.860,303.296 243.300 M11.150 242.647 C 9.873 242.912,9.200 243.143,9.200 243.315 C 9.200 244.177,11.984 255.192,13.045 258.530 L 13.500 259.961 15.662 259.302 C 16.851 258.940,17.860 258.607,17.904 258.563 C 17.949 258.518,17.714 257.586,17.382 256.491 C 16.705 254.257,14.607 246.125,14.094 243.750 C 13.711 241.974,13.957 242.066,11.150 242.647 M389.622 246.150 C 387.805 253.198,387.250 255.241,386.342 258.227 L 385.269 261.755 387.285 262.398 C 388.393 262.752,389.403 263.082,389.528 263.130 C 389.940 263.290,394.691 246.825,394.336 246.469 C 394.245 246.378,390.275 245.400,389.995 245.400 C 389.896 245.400,389.728 245.738,389.622 246.150 M259.287 251.650 L 258.700 252.300 259.350 251.713 C 259.956 251.165,260.092 251.000,259.937 251.000 C 259.903 251.000,259.610 251.293,259.287 251.650 M211.287 264.450 L 210.700 265.100 211.350 264.513 C 211.956 263.965,212.092 263.800,211.937 263.800 C 211.903 263.800,211.610 264.093,211.287 264.450 M161.247 271.849 L 161.200 277.399 130.450 277.450 L 99.700 277.501 130.456 277.551 C 155.106 277.590,161.232 277.550,161.310 277.347 C 161.363 277.208,161.381 274.665,161.350 271.697 L 161.293 266.300 161.247 271.849 M214.200 272.100 C 213.714 272.595,213.362 273.000,213.417 273.000 C 213.472 273.000,213.914 272.595,214.400 272.100 C 214.886 271.605,215.238 271.200,215.183 271.200 C 215.128 271.200,214.686 271.605,214.200 272.100 M21.200 275.130 C 20.265 275.517,19.424 275.905,19.332 275.995 C 19.085 276.232,25.651 291.118,26.279 291.745 C 26.339 291.805,30.312 289.915,30.544 289.716 C 30.568 289.695,29.884 288.243,29.023 286.489 C 27.592 283.573,25.385 278.699,24.137 275.700 C 23.529 274.236,23.418 274.214,21.200 275.130 M378.931 278.450 C 378.675 279.028,378.073 280.400,377.591 281.500 C 377.110 282.600,375.697 285.559,374.452 288.077 C 373.206 290.594,372.212 292.671,372.243 292.693 C 372.503 292.876,376.201 294.800,376.293 294.800 C 376.599 294.800,383.976 279.292,383.761 279.101 C 383.626 278.982,379.725 277.400,379.566 277.400 C 379.472 277.400,379.186 277.873,378.931 278.450 M196.850 279.538 C 197.043 279.588,197.358 279.588,197.550 279.538 C 197.743 279.488,197.585 279.446,197.200 279.446 C 196.815 279.446,196.658 279.488,196.850 279.538 M36.811 305.316 C 35.881 305.912,35.047 306.473,34.955 306.565 C 34.518 307.002,44.379 321.217,44.862 320.847 C 48.502 318.059,48.411 318.143,48.152 317.786 C 44.989 313.436,43.309 311.040,41.255 307.950 C 39.884 305.887,38.704 304.208,38.631 304.217 C 38.559 304.226,37.740 304.721,36.811 305.316 M362.102 309.350 C 360.184 312.241,358.729 314.287,356.060 317.849 C 353.596 321.137,353.637 320.638,355.703 322.262 C 357.819 323.925,357.348 324.105,359.925 320.650 C 365.124 313.681,367.765 309.671,367.385 309.325 C 367.076 309.044,363.873 307.000,363.742 307.000 C 363.698 307.000,362.960 308.058,362.102 309.350 M57.262 332.443 C 56.403 333.237,55.675 333.981,55.644 334.096 C 55.530 334.527,67.121 346.400,67.655 346.400 C 67.791 346.400,70.682 343.423,70.762 343.200 C 70.796 343.106,69.086 341.321,66.962 339.234 C 64.838 337.147,62.200 334.441,61.100 333.220 C 58.728 330.588,59.172 330.678,57.262 332.443 M340.086 336.456 C 338.444 338.142,335.713 340.836,334.018 342.442 L 330.936 345.363 332.495 347.076 L 334.054 348.788 334.652 348.363 C 335.586 347.698,346.400 336.978,346.400 336.717 C 346.400 336.505,345.718 335.807,343.786 334.043 L 343.072 333.391 340.086 336.456 M81.959 355.783 L 80.618 357.547 81.059 357.943 C 82.849 359.552,94.255 367.605,94.733 367.598 C 94.914 367.595,97.200 364.081,97.200 363.806 C 97.200 363.713,96.233 362.986,95.050 362.189 C 92.031 360.155,88.052 357.317,85.705 355.524 C 83.280 353.671,83.581 353.650,81.959 355.783 M315.300 357.924 C 313.870 358.974,310.855 361.054,308.600 362.546 C 306.345 364.038,304.418 365.332,304.319 365.421 C 304.183 365.542,305.868 368.551,306.541 369.389 C 306.736 369.633,315.975 363.456,320.143 360.294 L 320.986 359.655 319.643 357.835 C 318.017 355.631,318.437 355.622,315.300 357.924 M110.747 373.840 C 110.254 374.753,109.746 375.704,109.617 375.952 C 109.390 376.392,109.515 376.470,113.942 378.659 C 119.123 381.221,124.996 383.871,125.150 383.716 C 125.291 383.575,127.003 379.536,126.946 379.481 C 126.921 379.457,125.730 378.925,124.300 378.298 C 122.870 377.672,119.495 376.068,116.800 374.733 C 114.105 373.398,111.842 372.278,111.771 372.244 C 111.701 372.209,111.240 372.928,110.747 373.840 M287.100 374.938 C 284.528 376.245,278.918 378.801,276.200 379.903 C 275.155 380.327,274.273 380.692,274.240 380.714 C 274.086 380.816,275.927 384.996,276.127 384.998 C 276.807 385.005,291.182 378.481,291.765 377.901 C 291.910 377.757,289.752 373.801,289.534 373.810 C 289.405 373.816,288.310 374.324,287.100 374.938 M141.807 387.507 C 141.444 388.666,141.207 389.674,141.280 389.747 C 141.661 390.128,156.826 394.400,157.797 394.400 C 157.968 394.400,158.890 390.023,158.748 389.881 C 158.692 389.825,156.928 389.337,154.827 388.797 C 150.678 387.729,147.734 386.900,144.848 385.986 C 142.362 385.200,142.561 385.100,141.807 387.507 M256.700 386.818 C 254.637 387.487,248.296 389.160,245.334 389.816 C 243.776 390.161,242.426 390.512,242.335 390.597 C 242.018 390.891,243.017 395.220,243.379 395.119 C 243.556 395.070,244.015 394.969,244.400 394.894 C 247.280 394.333,255.927 392.080,259.023 391.083 L 259.945 390.786 259.297 388.643 C 258.558 386.199,258.575 386.210,256.700 386.818 M175.194 393.028 C 175.190 393.178,175.061 394.243,174.907 395.397 C 174.753 396.550,174.643 397.508,174.663 397.525 C 174.761 397.611,184.031 398.614,186.400 398.795 C 187.885 398.909,189.753 399.054,190.550 399.118 L 192.000 399.234 192.001 398.167 C 192.002 397.580,192.058 396.511,192.126 395.792 L 192.250 394.483 188.675 394.234 C 185.100 393.985,176.511 393.086,175.654 392.871 C 175.350 392.794,175.198 392.847,175.194 393.028 M222.619 393.617 C 220.912 393.838,214.529 394.346,211.350 394.514 L 208.800 394.648 208.800 396.096 C 208.800 396.893,208.856 397.954,208.925 398.455 L 209.050 399.365 210.475 399.284 C 217.116 398.904,222.707 398.450,225.350 398.075 C 226.339 397.935,226.333 397.964,225.974 395.164 L 225.748 393.400 224.824 393.425 C 224.316 393.439,223.323 393.525,222.619 393.617 " stroke="none" fill="#808080" fill-rule="evenodd"></path><path id="path1" d="M260.000 95.809 C 229.507 99.114,211.503 131.832,225.122 159.191 C 241.444 191.978,288.189 191.806,304.208 158.900 C 319.253 127.993,294.112 92.113,260.000 95.809 M99.800 228.000 L 99.800 277.400 130.500 277.400 L 161.200 277.400 161.200 271.900 L 161.200 266.400 136.800 266.400 L 112.400 266.400 112.400 222.500 L 112.400 178.600 106.100 178.600 L 99.800 178.600 99.800 228.000 M273.100 204.527 C 257.658 205.567,249.252 212.719,248.275 225.650 L 248.143 227.400 253.740 227.400 L 259.337 227.400 259.676 225.679 C 261.150 218.175,266.241 214.826,276.200 214.807 C 287.645 214.786,292.724 219.075,292.112 228.246 C 291.725 234.045,289.673 235.142,275.900 236.910 C 260.278 238.916,255.057 240.627,250.359 245.279 C 244.690 250.892,243.312 261.068,247.178 268.756 C 253.907 282.138,276.596 283.254,290.486 270.887 C 291.553 269.937,292.453 269.191,292.486 269.230 C 292.519 269.268,292.694 269.754,292.875 270.308 C 295.106 277.140,301.978 279.816,311.050 277.386 L 311.800 277.185 311.800 273.042 L 311.800 268.900 309.450 268.900 C 306.860 268.900,305.760 268.533,304.561 267.269 C 303.222 265.857,303.311 267.464,303.192 242.700 C 303.071 217.660,303.154 219.096,301.622 215.717 C 298.040 207.816,287.232 203.576,273.100 204.527 M172.653 234.950 C 172.712 261.942,172.735 263.576,173.084 264.894 C 175.564 274.271,183.388 279.394,195.236 279.399 C 204.963 279.402,211.398 276.198,217.511 268.307 L 218.900 266.514 218.953 271.957 L 219.006 277.400 224.003 277.400 L 229.000 277.400 229.000 241.900 L 229.000 206.400 223.511 206.400 L 218.023 206.400 217.944 227.950 C 217.852 253.119,217.845 253.191,215.300 258.732 C 208.666 273.177,187.121 273.569,184.103 259.300 C 183.850 258.106,183.806 254.115,183.803 232.150 L 183.800 206.400 178.195 206.400 L 172.591 206.400 172.653 234.950 M292.196 247.450 C 292.191 255.340,291.773 257.662,289.819 260.649 C 286.093 266.345,278.946 269.679,270.500 269.661 C 261.190 269.642,256.709 266.075,256.732 258.700 C 256.754 251.508,261.328 248.151,273.627 246.300 C 275.537 246.012,278.585 245.552,280.400 245.278 C 284.943 244.592,287.861 243.934,289.939 243.130 C 290.907 242.755,291.813 242.437,291.950 242.424 C 292.144 242.405,292.199 243.529,292.196 247.450 " stroke="none" fill="#ffffff" fill-rule="evenodd"></path><path id="path2" d="M350.000 7.220 C 318.568 8.937,299.121 43.210,313.511 71.530 C 328.180 100.401,368.751 103.969,388.200 78.099 C 410.999 47.774,388.023 5.143,350.000 7.220 M195.021 51.401 C 102.318 56.229,36.176 141.014,54.201 231.911 C 66.528 294.071,117.512 342.421,180.200 351.400 C 277.559 365.344,361.594 285.260,352.290 187.400 C 344.720 107.779,274.723 47.249,195.021 51.401 M268.400 95.608 C 305.613 98.950,322.227 144.034,296.074 170.706 C 274.838 192.364,238.086 186.372,224.897 159.100 C 209.924 128.139,234.310 92.547,268.400 95.608 M112.600 222.500 L 112.600 266.400 137.000 266.400 L 161.400 266.400 161.400 272.000 L 161.400 277.600 130.600 277.600 L 99.800 277.600 99.800 228.100 L 99.800 178.600 106.200 178.600 L 112.600 178.600 112.600 222.500 M285.400 204.984 C 295.381 206.813,301.030 211.370,302.934 219.131 C 303.234 220.356,303.282 222.857,303.385 242.900 L 303.500 265.300 303.944 266.131 C 305.000 268.104,306.766 268.884,309.918 268.767 L 312.000 268.690 312.000 272.950 L 312.000 277.210 311.493 277.403 C 303.110 280.590,294.856 277.216,292.483 269.633 C 292.429 269.461,291.918 269.807,291.050 270.604 C 275.501 284.873,249.889 281.783,245.611 265.123 C 243.492 256.873,245.879 248.498,251.659 243.897 C 256.608 239.959,261.356 238.597,277.100 236.598 C 290.006 234.960,291.989 233.682,291.996 227.000 C 292.003 218.827,287.657 215.324,277.168 215.052 C 266.484 214.774,261.389 217.930,259.818 225.800 L 259.479 227.500 253.739 227.553 L 248.000 227.606 248.001 226.853 C 248.002 226.439,248.134 225.225,248.295 224.156 C 250.097 212.201,256.987 206.245,271.000 204.528 C 273.189 204.260,283.175 204.576,285.400 204.984 M183.849 232.350 C 183.909 256.745,183.934 258.378,184.277 259.600 C 186.070 265.987,190.947 269.420,198.300 269.472 C 208.371 269.543,215.020 263.299,217.331 251.600 C 217.630 250.087,217.675 247.504,217.743 228.150 L 217.820 206.400 223.510 206.400 L 229.200 206.400 229.200 242.000 L 229.200 277.600 224.003 277.600 L 218.807 277.600 218.753 272.297 L 218.700 266.994 217.650 268.371 C 211.882 275.936,205.703 279.211,196.579 279.538 C 184.100 279.985,175.710 274.877,173.030 265.200 L 172.503 263.300 172.446 234.850 L 172.388 206.400 178.087 206.400 L 183.786 206.400 183.849 232.350 M290.972 242.903 C 289.178 243.877,285.131 244.764,277.300 245.899 C 266.421 247.475,262.514 248.719,259.661 251.516 C 256.488 254.627,255.862 260.557,258.272 264.670 C 262.189 271.354,278.421 271.161,286.346 264.336 C 290.944 260.376,291.832 257.936,291.950 248.950 C 292.041 242.078,292.077 242.302,290.972 242.903 " stroke="none" fill="#000080" fill-rule="evenodd"></path><path id="path3" d="M262.653 95.544 C 262.957 95.589,263.407 95.588,263.653 95.541 C 263.899 95.493,263.650 95.456,263.100 95.457 C 262.550 95.459,262.349 95.498,262.653 95.544 M265.653 95.544 C 265.957 95.589,266.407 95.588,266.653 95.541 C 266.899 95.493,266.650 95.456,266.100 95.457 C 265.550 95.459,265.349 95.498,265.653 95.544 M294.800 107.500 C 295.173 107.885,295.523 108.200,295.578 108.200 C 295.633 108.200,295.373 107.885,295.000 107.500 C 294.627 107.115,294.277 106.800,294.222 106.800 C 294.167 106.800,294.427 107.115,294.800 107.500 M296.800 109.500 C 297.173 109.885,297.523 110.200,297.578 110.200 C 297.633 110.200,297.373 109.885,297.000 109.500 C 296.627 109.115,296.277 108.800,296.222 108.800 C 296.167 108.800,296.427 109.115,296.800 109.500 M233.300 171.000 C 233.842 171.550,234.330 172.000,234.385 172.000 C 234.440 172.000,234.042 171.550,233.500 171.000 C 232.958 170.450,232.470 170.000,232.415 170.000 C 232.360 170.000,232.758 170.450,233.300 171.000 M295.589 171.150 L 294.900 171.900 295.650 171.211 C 296.348 170.569,296.492 170.400,296.339 170.400 C 296.306 170.400,295.968 170.738,295.589 171.150 M112.498 222.500 C 112.498 246.700,112.522 256.570,112.550 244.434 C 112.578 232.298,112.578 212.498,112.550 200.434 C 112.522 188.370,112.498 198.300,112.498 222.500 M264.050 183.943 C 264.353 183.989,264.848 183.989,265.150 183.943 C 265.453 183.897,265.205 183.860,264.600 183.860 C 263.995 183.860,263.748 183.897,264.050 183.943 M275.250 214.947 C 275.772 214.988,276.627 214.988,277.150 214.947 C 277.673 214.906,277.245 214.872,276.200 214.872 C 275.155 214.872,274.728 214.906,275.250 214.947 M250.862 227.550 C 252.491 227.583,255.101 227.583,256.662 227.549 C 258.223 227.516,256.890 227.488,253.700 227.488 C 250.510 227.488,249.233 227.516,250.862 227.550 M250.189 245.150 L 249.500 245.900 250.250 245.211 C 250.663 244.832,251.000 244.494,251.000 244.461 C 251.000 244.308,250.831 244.452,250.189 245.150 M244.866 259.100 C 244.867 259.870,244.903 260.160,244.946 259.746 C 244.989 259.331,244.989 258.701,244.944 258.346 C 244.900 257.990,244.865 258.330,244.866 259.100 M172.450 261.100 C 172.453 261.540,172.494 261.696,172.541 261.448 C 172.589 261.199,172.587 260.839,172.537 260.648 C 172.487 260.456,172.448 260.660,172.450 261.100 M187.500 265.600 C 187.930 266.040,188.326 266.400,188.381 266.400 C 188.436 266.400,188.130 266.040,187.700 265.600 C 187.270 265.160,186.874 264.800,186.819 264.800 C 186.764 264.800,187.070 265.160,187.500 265.600 M218.751 270.350 C 218.848 277.065,218.916 277.689,218.958 272.250 C 218.981 269.252,218.933 266.800,218.850 266.800 C 218.768 266.800,218.723 268.397,218.751 270.350 M311.885 272.900 C 311.885 275.320,311.914 276.283,311.949 275.039 C 311.985 273.795,311.984 271.815,311.949 270.639 C 311.914 269.463,311.885 270.480,311.885 272.900 M308.850 268.943 C 309.153 268.989,309.648 268.989,309.950 268.943 C 310.253 268.897,310.005 268.860,309.400 268.860 C 308.795 268.860,308.548 268.897,308.850 268.943 M291.292 270.250 L 290.300 271.300 291.312 270.345 C 291.868 269.820,292.400 269.460,292.494 269.545 C 292.588 269.630,292.599 269.588,292.520 269.450 C 292.329 269.118,292.415 269.062,291.292 270.250 M303.650 278.546 C 304.063 278.589,304.738 278.589,305.150 278.546 C 305.563 278.503,305.225 278.467,304.400 278.467 C 303.575 278.467,303.238 278.503,303.650 278.546 " stroke="none" fill="#2d2d96" fill-rule="evenodd"></path><path id="path4" d="M220.473 139.700 C 220.474 140.800,220.507 141.224,220.548 140.643 C 220.588 140.062,220.588 139.162,220.547 138.643 C 220.506 138.124,220.473 138.600,220.473 139.700 M308.666 139.700 C 308.667 140.470,308.703 140.760,308.746 140.346 C 308.789 139.931,308.789 139.301,308.744 138.946 C 308.700 138.590,308.665 138.930,308.666 139.700 M296.687 169.850 L 296.100 170.500 296.750 169.913 C 297.356 169.365,297.492 169.200,297.337 169.200 C 297.303 169.200,297.010 169.493,296.687 169.850 M294.687 171.850 L 294.100 172.500 294.750 171.913 C 295.356 171.365,295.492 171.200,295.337 171.200 C 295.303 171.200,295.010 171.493,294.687 171.850 M279.050 204.538 C 279.243 204.588,279.558 204.588,279.750 204.538 C 279.943 204.488,279.785 204.446,279.400 204.446 C 279.015 204.446,278.858 204.488,279.050 204.538 M217.896 226.700 C 217.896 237.920,217.920 242.481,217.950 236.835 C 217.979 231.189,217.979 222.009,217.950 216.435 C 217.920 210.861,217.896 215.480,217.896 226.700 M292.071 226.900 C 292.070 227.890,292.104 228.320,292.146 227.856 C 292.188 227.392,292.189 226.582,292.147 226.056 C 292.106 225.530,292.072 225.910,292.071 226.900 M292.088 247.800 C 292.088 250.825,292.116 252.063,292.150 250.550 C 292.183 249.038,292.183 246.563,292.150 245.050 C 292.116 243.538,292.088 244.775,292.088 247.800 M256.654 258.800 C 256.654 259.295,256.693 259.498,256.741 259.250 C 256.789 259.002,256.789 258.598,256.741 258.350 C 256.693 258.103,256.654 258.305,256.654 258.800 M197.954 269.745 C 198.313 269.789,198.853 269.789,199.154 269.743 C 199.454 269.697,199.160 269.661,198.500 269.662 C 197.840 269.663,197.594 269.700,197.954 269.745 M269.850 269.746 C 270.262 269.789,270.938 269.789,271.350 269.746 C 271.762 269.703,271.425 269.667,270.600 269.667 C 269.775 269.667,269.438 269.703,269.850 269.746 M177.592 273.250 C 178.420 274.133,178.600 274.292,178.600 274.142 C 178.600 274.110,178.173 273.682,177.650 273.192 L 176.700 272.300 177.592 273.250 M194.355 279.547 C 194.826 279.589,195.546 279.588,195.955 279.545 C 196.365 279.502,195.980 279.468,195.100 279.469 C 194.220 279.469,193.885 279.504,194.355 279.547 M267.355 279.547 C 267.826 279.589,268.546 279.588,268.955 279.545 C 269.365 279.502,268.980 279.468,268.100 279.469 C 267.220 279.469,266.885 279.504,267.355 279.547 " stroke="none" fill="#bebedf" fill-rule="evenodd"></path></g></svg>